<svg width="647" height="195" viewBox="0 0 647 195" fill="none" xmlns="http://www.w3.org/2000/svg">
<path d="M307.648 143.579V126.079C309.147 114.579 311.647 89.5794 313.147 70.5794C310.647 57.5794 304.147 44.0794 278.647 50.5794C261.147 53.5794 223.648 78.0794 188.148 109.579C175.148 119.579 141.648 149.579 104.148 167.079C85.1475 172.579 58.6475 186.079 15.1476 177.079C4.64886 173.579 -8.35152 161.579 7.14762 153.579C40.6485 150.079 65.1485 138.079 88.1476 122.579C127.648 95.9588 142.648 79.5794 183.148 46.0794C220.648 16.5794 244.649 6.3609 276.148 1.07938C304.148 -3.61559 343.149 6.07837 354.148 48.5789C360.648 72.5789 358.148 101.579 360.648 114.579C365.148 132.079 368.649 140.079 395.148 140.079C445.648 125.579 456.648 99.2013 500.648 87.0789C513.648 83.4972 550.149 74.0784 564.148 88.0789C544.648 95.0789 502.648 121.579 474.648 145.079C443.148 164.579 418.148 190.579 367.148 194.579C340.148 194.579 315.648 192.579 307.648 143.579Z" fill="#FDC52C"/>
<circle cx="608.648" cy="117.079" r="37.5" fill="#FDC52C"/>
</svg>
