<svg width="428" height="233" viewBox="0 0 428 233" fill="none" xmlns="http://www.w3.org/2000/svg">
<path d="M130.249 217.883C104.782 229.543 43.6608 195.293 84.4087 160.315C148.443 161.773 181.915 165.416 204.47 229.543C189.431 217.64 156.932 205.667 130.249 217.883Z" fill="black"/>
<path d="M297.751 219.341C323.218 231 384.339 196.751 343.591 161.773C279.557 163.23 246.085 166.874 223.53 231C238.569 219.098 271.068 207.125 297.751 219.341Z" fill="black" stroke="black"/>
<path d="M204.472 229.543C247.404 65.5836 140.438 9.47319 0 0C5.09361 51.7382 12.3702 152.3 93.1404 161.773C139.49 167.209 178.276 158.858 204.472 229.543Z" fill="black"/>
<path d="M223.528 231C180.596 67.0411 287.562 10.9307 428 1.45752C422.906 53.1957 415.63 153.757 334.86 163.23C288.51 168.667 249.724 160.316 223.528 231Z" fill="black"/>
<path d="M203.297 205.495C199.659 120.237 213.485 40.8076 38.1189 23.3186C35.9361 49.552 46.1233 107.12 81.7784 150.842C121.072 148.656 180.012 155.943 203.297 205.495Z" fill="url(#paint0_linear_258_220)"/>
<path d="M224.703 206.953C228.341 121.694 214.515 42.2651 389.881 24.7761C392.064 51.0096 381.877 108.577 346.222 152.3C306.928 150.114 247.988 157.401 224.703 206.953Z" fill="url(#paint1_linear_258_220)"/>
<path d="M56.8257 40.3123C56.5522 40.2745 56.2998 40.4657 56.262 40.7392C56.2242 41.0127 56.4154 41.2651 56.6889 41.3029L56.7573 40.8076L56.8257 40.3123ZM56.7573 40.8076L56.6889 41.3029C119.925 50.0377 164.16 74.0472 184.423 101.587L184.825 101.29L185.228 100.994C164.742 73.1517 120.202 49.0665 56.8257 40.3123L56.7573 40.8076Z" fill="#BFBFBF"/>
<path d="M371.174 41.7696C371.448 41.7318 371.7 41.9229 371.738 42.1965C371.776 42.47 371.585 42.7224 371.311 42.7602L371.243 42.2649L371.174 41.7696ZM371.243 42.2649L371.311 42.7602C308.075 51.495 263.84 75.5044 243.577 103.044L243.175 102.748L242.772 102.451C263.258 74.6089 307.798 50.5238 371.174 41.7696L371.243 42.2649Z" fill="#BFBFBF"/>
<path d="M58.2813 62.1734C58.0078 62.1356 57.7554 62.3267 57.7176 62.6003C57.6798 62.8738 57.8709 63.1262 58.1445 63.164L58.2129 62.6687L58.2813 62.1734ZM58.2129 62.6687L58.1445 63.164C121.381 71.8988 164.16 95.1796 184.423 122.719L184.826 122.423L185.228 122.126C164.742 94.284 121.658 70.9275 58.2813 62.1734L58.2129 62.6687Z" fill="#BFBFBF"/>
<path d="M369.719 63.6309C369.992 63.5931 370.245 63.7843 370.282 64.0578C370.32 64.3314 370.129 64.5837 369.856 64.6215L369.787 64.1262L369.719 63.6309ZM369.787 64.1262L369.856 64.6215C306.619 73.3563 263.84 96.6371 243.577 124.176L243.174 123.88L242.772 123.584C263.258 95.7415 306.342 72.3851 369.719 63.6309L369.787 64.1262Z" fill="#BFBFBF"/>
<path d="M63.3062 84.53C126.612 93.2745 168.817 116.593 189.191 144.284" stroke="#BFBFBF" stroke-linecap="round"/>
<path d="M364.694 85.9873C301.388 94.7318 259.183 118.05 238.809 145.741" stroke="#BFBFBF" stroke-linecap="round"/>
<path d="M71.3105 107.849C134.617 116.593 173.183 139.183 193.557 166.874" stroke="#BFBFBF" stroke-linecap="round"/>
<path d="M356.689 109.306C293.383 118.05 254.817 140.64 234.443 168.331" stroke="#BFBFBF" stroke-linecap="round"/>
<path d="M281.604 2.37077C286.698 4.55698 288.881 20.5876 270.689 14.758C264.868 17.6721 246.677 20.5876 218.298 84.7149C227.757 38.0779 263.413 -5.43678 281.604 2.37077Z" fill="black"/>
<path d="M146.219 2.37077C141.125 4.55698 138.942 20.5876 157.134 14.758C162.955 17.6721 181.147 20.5876 209.525 84.7149C200.066 38.0779 164.411 -5.43678 146.219 2.37077Z" fill="black"/>
<path d="M129.523 209.867C109.149 201.852 95.3231 186.549 90.2295 164.688C154.263 162.502 179.732 171.975 200.834 214.968C185.795 203.066 155.719 201.123 129.523 209.867Z" fill="url(#paint2_linear_258_220)"/>
<path d="M298.477 211.325C318.851 203.309 332.677 188.006 337.771 166.145C273.737 163.959 248.268 173.432 227.166 216.426C242.205 204.524 272.281 202.581 298.477 211.325Z" fill="url(#paint3_linear_258_220)"/>
<path d="M107.693 172.703C133.161 172.703 162.995 178.533 178.276 191.65" stroke="#BFBFBF" stroke-linecap="round"/>
<path d="M320.307 174.161C294.839 174.161 265.005 179.991 249.724 193.107" stroke="#BFBFBF" stroke-linecap="round"/>
<path d="M121.519 188.735C150.625 188.735 171 195.293 184.098 203.309" stroke="#BFBFBF" stroke-linecap="round"/>
<path d="M306.481 190.192C277.375 190.192 257 196.75 243.902 204.767" stroke="#BFBFBF" stroke-linecap="round"/>
<defs>
<linearGradient id="paint0_linear_258_220" x1="120.568" y1="23.3186" x2="120.792" y2="205.495" gradientUnits="userSpaceOnUse">
<stop stop-color="#4E4E4E"/>
<stop offset="1" stop-color="white"/>
</linearGradient>
<linearGradient id="paint1_linear_258_220" x1="307.432" y1="24.7761" x2="307.208" y2="206.953" gradientUnits="userSpaceOnUse">
<stop stop-color="#4E4E4E"/>
<stop offset="1" stop-color="white"/>
</linearGradient>
<linearGradient id="paint2_linear_258_220" x1="146.623" y1="164.688" x2="146.669" y2="232.457" gradientUnits="userSpaceOnUse">
<stop stop-color="#333333"/>
<stop offset="1" stop-color="white"/>
</linearGradient>
<linearGradient id="paint3_linear_258_220" x1="281.377" y1="166.145" x2="281.331" y2="233.915" gradientUnits="userSpaceOnUse">
<stop stop-color="#333333"/>
<stop offset="1" stop-color="white"/>
</linearGradient>
</defs>
</svg>
